<?xml version="1.0" encoding="UTF-8" standalone="no"?>
<svg width="12px" height="11px" viewBox="0 0 12 11" version="1.1" xmlns="http://www.w3.org/2000/svg" xmlns:xlink="http://www.w3.org/1999/xlink" xmlns:sketch="http://www.bohemiancoding.com/sketch/ns">
    <!-- Generator: Sketch 3.3.3 (12081) - http://www.bohemiancoding.com/sketch -->
    <title>github</title>
    <desc>Created with Sketch.</desc>
    <defs></defs>
    <g id="Page-1" stroke="none" stroke-width="1" fill="none" fill-rule="evenodd" sketch:type="MSPage">
        <g id="icons" sketch:type="MSArtboardGroup" transform="translate(-13.000000, -24.000000)" fill="#CC0000">
            <path d="M18.9994475,24 C15.6866386,24 13,26.5247313 13,29.6393627 C13,32.1308602 14.7190215,34.244323 17.1032567,34.9900067 C17.4034501,35.0419346 17.5128457,34.8678032 17.5128457,34.7182511 C17.5128457,34.5846234 17.507689,34.2297832 17.5047423,33.7593171 C15.8358145,34.0999637 15.4836858,33.0032478 15.4836858,33.0032478 C15.2107493,32.3517266 14.817367,32.1782876 14.817367,32.1782876 C14.2725989,31.8286402 14.8586206,31.8355639 14.8586206,31.8355639 C15.460849,31.8753753 15.7776175,32.4168095 15.7776175,32.4168095 C16.3128089,33.2784653 17.1820805,33.0295579 17.5238958,32.8851985 C17.5784094,32.5210113 17.7334786,32.2724501 17.9047546,32.1315526 C16.5724853,31.9892703 15.1717057,31.5053029 15.1717057,29.3444126 C15.1717057,28.7288947 15.4055987,28.2251947 15.7894042,27.8312356 C15.7275239,27.6886071 15.5216244,27.1149777 15.8483379,26.3388296 C15.8483379,26.3388296 16.3518524,26.1872004 17.4981123,26.9169595 C17.97658,26.7916403 18.4900396,26.7293269 19.0001842,26.7269036 C19.5099604,26.7293269 20.0230517,26.7916403 20.5022561,26.9169595 C21.6477792,26.1872004 22.1505571,26.3388296 22.1505571,26.3388296 C22.4780073,27.1149777 22.2721078,27.6886071 22.2105958,27.8312356 C22.595138,28.2251947 22.8271893,28.7288947 22.8271893,29.3444126 C22.8271893,31.5108419 21.4241996,31.9875394 20.0878787,32.1270522 C20.3029866,32.3011835 20.4948893,32.6452919 20.4948893,33.171494 C20.4948893,33.92514 20.4875226,34.533388 20.4875226,34.7182511 C20.4875226,34.869188 20.5958133,35.044704 20.9000583,34.9896605 C23.2824519,34.2422459 25,32.1301678 25,29.6393627 C25,26.5247313 22.3133614,24 18.9994475,24" id="github" sketch:type="MSShapeGroup"></path>
        </g>
    </g>
</svg>