<?xml version="1.0" encoding="UTF-8" standalone="no"?>
<svg width="14px" height="10px" viewBox="0 0 14 10" version="1.1" xmlns="http://www.w3.org/2000/svg" xmlns:xlink="http://www.w3.org/1999/xlink" xmlns:sketch="http://www.bohemiancoding.com/sketch/ns">
    <!-- Generator: Sketch 3.3.3 (12081) - http://www.bohemiancoding.com/sketch -->
    <title>twitter</title>
    <desc>Created with Sketch.</desc>
    <defs></defs>
    <g id="Page-1" stroke="none" stroke-width="1" fill="none" fill-rule="evenodd" sketch:type="MSPage">
        <g id="icons" sketch:type="MSArtboardGroup" transform="translate(-41.000000, -24.000000)" fill="#CC0000">
            <path d="M54.1525,25.1837806 C53.6741833,25.3845655 53.1601557,25.5202675 52.6206408,25.5812997 C53.1713302,25.2688475 53.5942023,24.774109 53.7933464,24.1846267 C53.278035,24.4738993 52.7072313,24.6840011 52.0997183,24.7972437 C51.6131752,24.306601 50.9200226,24 50.152928,24 C48.679937,24 47.4857382,25.1303099 47.4857382,26.5244624 C47.4857382,26.7223217 47.5093711,26.9150051 47.55483,27.0997669 C45.3381871,26.9944909 43.372947,25.9894409 42.0574929,24.462107 C41.8279161,24.8349612 41.6963897,25.2686225 41.6963897,25.7312695 C41.6963897,26.6070988 42.1672884,27.3798126 42.8829327,27.8325127 C42.4457002,27.8194151 42.0344781,27.7058575 41.674849,27.5167748 C41.6746588,27.5273069 41.6746588,27.537884 41.6746588,27.5485062 C41.6746588,28.7716696 42.5940121,29.7920226 43.8141262,30.0239088 C43.5903031,30.0816102 43.3546874,30.1124414 43.1114158,30.1124414 C42.9395661,30.1124414 42.7724715,30.0966432 42.6096564,30.0671624 C42.9490288,31.070142 43.9340026,31.8000072 45.1010972,31.8203963 C44.188306,32.497466 43.0382822,32.9010613 41.788734,32.9010613 C41.57347,32.9010613 41.3611543,32.8891339 41.1525,32.8658193 C42.3328138,33.5820918 43.7347634,34 45.2409451,34 C50.1466988,34 52.8293426,30.1532195 52.8293426,26.8172006 C52.8293426,26.7077388 52.8267748,26.5988622 52.8216393,26.4906156 C53.3427045,26.1346848 53.7949156,25.6900413 54.1525,25.1837806" id="twitter" sketch:type="MSShapeGroup"></path>
        </g>
    </g>
</svg>